<?xml version="1.0" standalone="no"?>
<!DOCTYPE svg PUBLIC "-//W3C//DTD SVG 20010904//EN"
 "http://www.w3.org/TR/2001/REC-SVG-20010904/DTD/svg10.dtd">
<svg version="1.0" xmlns="http://www.w3.org/2000/svg"
 width="100.000000pt" height="132.000000pt" viewBox="0 0 100.000000 132.000000"
 preserveAspectRatio="xMidYMid meet">
<metadata>
Created by potrace 1.16, written by Peter Selinger 2001-2019
</metadata>
<g transform="translate(0.000000,132.000000) scale(0.100000,-0.100000)"
fill="#000000" stroke="none">
<path d="M373 904 c-123 -119 -222 -221 -222 -227 1 -7 46 -55 100 -106 l99
-95 0 71 c0 57 -4 75 -17 85 -54 40 -54 42 53 149 54 54 102 99 106 99 5 0 8
-114 8 -252 l0 -253 50 50 50 51 -2 321 -3 322 -222 -215z"/>
<path d="M425 782 l-40 -37 -5 -327 c-3 -181 -4 -328 -2 -328 2 0 104 98 228
217 l223 218 -97 98 c-53 53 -100 97 -104 97 -5 0 -8 -28 -8 -62 0 -58 3 -65
35 -98 l36 -37 -101 -96 c-55 -54 -105 -97 -110 -97 -6 0 -11 97 -12 244 l-3
244 -40 -36z"/>
</g>
</svg>
